<svg width="19" height="22" viewBox="0 0 19 22" fill="none" xmlns="http://www.w3.org/2000/svg">
<path d="M13.4849 11.0192C14.7051 11.7138 15.6383 12.6671 16.3465 13.8504C17.1026 15.1199 17.5572 16.4995 17.7629 17.951C17.8969 18.8996 17.94 19.8625 17.9974 20.8206C18.0309 21.3619 17.7199 21.6541 17.1743 21.6541C11.8722 21.6541 6.57007 21.6541 1.26793 21.6541C0.712836 21.6541 0.420932 21.3667 0.425717 20.8062C0.440073 18.8756 0.684124 16.9882 1.41628 15.1869C2.12451 13.448 3.21077 12.0252 4.85693 11.0671C4.88085 11.0527 4.90478 11.0288 4.92871 11.0096C2.49298 8.44189 3.0385 4.51846 5.44073 2.51603C7.72333 0.604614 11.0635 0.695634 13.2312 2.73639C15.4468 4.82026 15.8105 8.48021 13.4849 11.0192ZM16.5188 20.1834C16.4278 18.2528 16.1264 16.3893 15.1549 14.6983C14.5041 13.5629 13.6045 12.6911 12.4129 12.121C12.2694 12.0491 12.1641 12.0539 12.0206 12.1306C10.1399 13.127 8.2545 13.1126 6.37866 12.1162C6.25902 12.0539 6.16332 12.0396 6.04368 12.1018C5.11055 12.5474 4.33054 13.1797 3.71802 14.0132C2.82795 15.2205 2.35899 16.5953 2.12451 18.0612C2.01444 18.7558 1.95702 19.4648 1.87088 20.1834C6.77584 20.1834 11.6329 20.1834 16.5188 20.1834ZM13.6045 7.00473C13.6045 4.58074 11.6377 2.60226 9.21635 2.60226C6.79498 2.60226 4.81864 4.57116 4.81864 6.99515C4.81864 9.41915 6.78541 11.3976 9.20678 11.3976C11.6282 11.4024 13.6045 9.42873 13.6045 7.00473Z" fill="black" stroke="black" stroke-width="0.5" stroke-miterlimit="10"/>
</svg>
