<svg width="25" height="22" viewBox="0 0 25 22" fill="none" xmlns="http://www.w3.org/2000/svg">
<path d="M1.20497 7.54399C1.27988 7.09401 1.32395 6.63963 1.43853 6.19847C2.04225 3.88683 3.39513 2.19721 5.70427 1.46931C8.17205 0.68847 10.3225 1.31932 12.1029 3.19863C12.3144 3.41921 12.4995 3.66184 12.7066 3.90889C12.9093 3.67067 13.0944 3.43244 13.3015 3.20745C14.2842 2.14869 15.4564 1.41196 16.9062 1.22668C19.1449 0.939927 21.0618 1.62371 22.5337 3.34862C24.0055 5.07353 24.4374 7.11166 24.0981 9.32625C23.8821 10.7291 23.2432 11.9511 22.4059 13.076C21.3086 14.5539 19.9689 15.798 18.5896 17.0023C16.9635 18.4184 15.3242 19.8257 13.6893 21.233C13.0591 21.7756 12.3849 21.7976 11.7812 21.2771C9.64831 19.4242 7.51104 17.5802 5.40461 15.6965C4.33377 14.7436 3.3775 13.676 2.58869 12.4673C1.84836 11.3247 1.35039 10.0939 1.23582 8.72628C1.23141 8.67334 1.21378 8.62481 1.20056 8.57629C1.20497 8.23219 1.20497 7.88809 1.20497 7.54399ZM12.7022 20.2933C12.7595 20.2492 12.808 20.2139 12.852 20.1742C14.672 18.5993 16.5008 17.0376 18.3032 15.4495C19.5635 14.3377 20.7622 13.1599 21.692 11.7482C22.5821 10.4027 23.0184 8.93803 22.8157 7.31459C22.5954 5.56321 21.8462 4.11182 20.295 3.19863C18.8496 2.34721 17.3205 2.24133 15.7869 2.98247C14.8791 3.41921 14.2093 4.12946 13.6452 4.95442C13.5659 5.07353 13.491 5.19705 13.4073 5.31175C13.0371 5.81908 12.3761 5.81467 12.0015 5.31617C11.6754 4.87942 11.3758 4.41621 11.0012 4.01918C9.79814 2.74424 8.30866 2.25015 6.59443 2.62072C4.74359 3.02217 3.52733 4.19564 2.91479 5.96025C2.20089 8.01161 2.54022 9.94386 3.72123 11.7438C4.45275 12.8599 5.35173 13.8392 6.33884 14.726C7.96934 16.195 9.63509 17.6287 11.2832 19.0713C11.7547 19.4816 12.2263 19.883 12.7022 20.2933Z" fill="black" stroke="black" stroke-width="0.5" stroke-miterlimit="10"/>
</svg>
