<svg width="18" height="18" viewBox="0 0 18 18" fill="none" xmlns="http://www.w3.org/2000/svg">
<g clip-path="url(#clip0_32_2)">
<path d="M9 0C4.02961 0 0 4.02961 0 9C0 13.9704 4.02961 18 9 18C13.9704 18 18 13.9704 18 9C18 4.02961 13.9704 0 9 0Z" fill="white"/>
<path d="M9.98448 8.18552L13.8373 3.70697H12.9243L9.5789 7.59564L6.90697 3.70697H3.8252L7.86569 9.58732L3.8252 14.2838H4.73824L8.27105 10.1772L11.0928 14.2838H14.1746L9.98425 8.18552H9.98448ZM5.06721 4.3943H6.46958L12.9247 13.6277H11.5223L5.06721 4.3943Z" fill="black"/>
</g>
<defs>
<clipPath id="clip0_32_2">
<rect width="18" height="18" fill="white"/>
</clipPath>
</defs>
</svg>
